<svg xmlns="http://www.w3.org/2000/svg" width="540" height="900"><g><g transform="matrix(1.5 0 0 1.5 90 -309.543)"><rect width="359" height="357" rx="2" ry="2" x="-59" y="449.362" fill="#b5d0d0"/><path d="M150.5 449.4L140 473.6l-13.6 33.6-11 23.3-14.8 27.6-17 41.8-19.7 36-42.6 73.6-35.3 57.3-25 39.7h20l31-44 52-65 39-61 23-30 27-39 9-15 15.5-28 17.5-31 25.4-44h-70z" fill="#f1eee8"/><g><path d="M14.7-.2C8-.2 1.7 4.4.2 11 0 12.4-.2 13.7 0 15-.4 22.6 5.6 29.7 11.2 37l3.4 3.8 3-3.7c7-9 17.2-22.2 8.4-31.8-2-2.6-5-4.4-8.4-5.2l-3-.3z" fill="#d35f5f" transform="translate(99.59 551.398)"/><path d="M14 22.3c-4.7-.8-7.6-4.4-6.6-8 1-3.8 5.5-6.2 10-5.4 4.7.7 7.6 4.3 6.6 8-1 3.6-5.3 6-9.8 5.3" opacity=".34" fill="none" transform="translate(99.59 551.398)"/><path d="M10 37c-2.8-.4-4.7-2.5-4-4.5.5-2 3.4-3.4 6.3-3 3 .5 4.8 2.6 4.2 4.6-.6 2-3.4 3.4-6.3 3" fill="none" transform="translate(99.59 551.398)"/><path d="M22 7.5h-2.4v-1c0-.4-.2-.6-.5-.6-.2 0-.4 0-.4.4v1h-3.3v-1c0-.3-.2-.5-.5-.5s-.5 0-.5.4v1H11v-1c0-.3-.2-.5-.5-.5s-.5 0-.5.4v1H7.6C6.8 7.5 6 8.3 6 9v13c0 .7.8 1.4 1.6 1.4h14.6c.8 0 1.5-.7 1.5-1.5V9c0-.8-.7-1.5-1.5-1.5zm.4 14.4s-.2.3-.4.3H7.4c-.2 0-.4-.2-.4-.4V9c0-.2.2-.4.4-.4h2.4v1c0 .4.2.6.5.6s.5-.2.5-.5v-1H14v1c0 .3.3.5.6.5s.5-.2.5-.5v-1h3.4v1c0 .3.2.5.5.5.2 0 .4-.2.4-.5v-1h2.4c.2 0 .4 0 .4.3v13zM9.8 12.3H12V14H9.8zm0 2.8H12v1.6H9.8zm0 2.7H12v1.5H9.8zm3.8 0h2.2v1.5h-2.2zm0-2.8h2.2v1.6h-2.2zm0-2.8h2.2V14h-2.2zm4 5.5h2v1.5h-2zm0-2.8h2v1.6h-2zm0-2.8h2V14h-2z" transform="translate(99.59 551.398)" fill="#fff"/></g><g><g><path d="M14.7-.2C8-.2 1.7 4.4.2 11 0 12.4-.2 13.7 0 15-.4 22.6 5.6 29.7 11.2 37l3.4 3.8 3-3.7c7-9 17.2-22.2 8.4-31.8-2-2.6-5-4.4-8.4-5.2l-3-.3z" fill="#d35f5f" transform="translate(188.875 524.446)"/><path d="M14 22.3c-4.7-.8-7.6-4.4-6.6-8 1-3.8 5.5-6.2 10-5.4 4.7.7 7.6 4.3 6.6 8-1 3.6-5.3 6-9.8 5.3" opacity=".34" fill="none" transform="translate(188.875 524.446)"/><path d="M10 37c-2.8-.4-4.7-2.5-4-4.5.5-2 3.4-3.4 6.3-3 3 .5 4.8 2.6 4.2 4.6-.6 2-3.4 3.4-6.3 3" fill="none" transform="translate(188.875 524.446)"/></g><path d="M24 9h-.5c-.3 0-.6.2-1 .5L21 11v-.7c0-1-1-1.8-2-1.8H7.6c-1 0-1.8.8-1.8 1.8V20c0 1 .8 1.8 1.8 1.8H19c1 0 2-.8 2-1.8v-.7l1.6 1.6c.2 0 .5.3 1 .3h.4c.7 0 1.2-.5 1.2-1.2v-9.7c0-.7-.5-1.2-1.2-1.2zM7.5 20.8c-.3 0-.6-.3-.6-.6v-9.7c0-.3.2-.6.5-.6H19c.4 0 .7.3.7.6V20c0 .4-.3.7-.6.7H7.6zM24 20h-.6L21 17.8l-.6-.6v-3.6l3-3h.6v9.8z" fill="#fff" transform="translate(188.875 524.446)"/></g><g><g><path d="M14.7-.2C8-.2 1.7 4.4.2 11 0 12.4-.2 13.7 0 15-.4 22.6 5.6 29.7 11.2 37l3.4 3.8 3-3.7c7-9 17.2-22.2 8.4-31.8-2-2.6-5-4.4-8.4-5.2l-3-.3z" fill="#d35f5f" transform="translate(136.685 468.731)"/><path d="M14 22.3c-4.7-.8-7.6-4.4-6.6-8 1-3.8 5.5-6.2 10-5.4 4.7.7 7.6 4.3 6.6 8-1 3.6-5.3 6-9.8 5.3" opacity=".34" fill="none" transform="translate(136.685 468.731)"/><path d="M10 37c-2.8-.4-4.7-2.5-4-4.5.5-2 3.4-3.4 6.3-3 3 .5 4.8 2.6 4.2 4.6-.6 2-3.4 3.4-6.3 3" fill="none" transform="translate(136.685 468.731)"/></g><path d="M17.2 5.3c-1.5 0-2.8 1.3-2.8 2.8 0 1.2.7 2.2 1.6 2.6l-.4 1.5h-.2c-1.5 0-2.8 1.3-2.8 2.8 0 .5.2 1 .3 1.3L10 18c-.6-.5-1.2-.8-2-.8-1.5 0-2.8 1.3-2.8 2.8 0 1.5 1.3 2.8 2.8 2.8h.6c1-.2 1.6-1 2-1.7l.2-1.2v-.5c0-.2 0-.3-.2-.4l3-2c.6.4 1.2.6 1.8.6.6 0 1 0 1.5-.4l1.3 2c-.4.5-.7 1-.7 1.8 0 1.6 1.3 2.8 2.8 2.8 1.5 0 2.8-1.2 2.8-2.8 0-1.5-1.3-2.7-2.8-2.7-.4 0-.7 0-1 .2l-1.6-2c.3-.6.4-1 .4-1.7 0-1-.5-2-1.4-2.4l.4-1.5c1.6 0 2.8-1.4 2.8-3 0-1.4-1.2-2.7-2.8-2.7zm0 1.2c1 0 1.6.7 1.6 1.6 0 1-.7 1.6-1.6 1.6-.8 0-1.5-.6-1.5-1.5 0-.8.7-1.5 1.5-1.5zm-1.8 6.8c1 0 1.6.7 1.6 1.5 0 1-.7 1.6-1.6 1.6-.8 0-1.5-.7-1.5-1.6 0-.8.6-1.5 1.4-1.5zm-7.4 5c1 0 1.5.6 1.5 1.5 0 1-.6 1.6-1.5 1.6-1 0-1.6-.7-1.6-1.6v-.3c.2-.7.8-1.2 1.6-1.2zm12.4 1.2c1 0 1.6.7 1.6 1.5 0 1-.7 1.6-1.6 1.6-1 0-1.5-.7-1.5-1.6 0-.8.5-1.5 1.4-1.5z" style="text-indent:0;text-align:start;line-height:normal;text-transform:none;block-progression:tb;-inkscape-font-specification:Sans" color="#000" fill="#fff" overflow="visible" enable-background="accumulate" font-family="Sans" transform="translate(136.685 468.731)"/></g><g><g><path d="M14.7-.2C8-.2 1.7 4.4.2 11 0 12.4-.2 13.7 0 15-.4 22.6 5.6 29.7 11.2 37l3.4 3.8 3-3.7c7-9 17.2-22.2 8.4-31.8-2-2.6-5-4.4-8.4-5.2l-3-.3z" fill="#d35f5f" transform="translate(32.304 654.969)"/><path d="M14 22.3c-4.7-.8-7.6-4.4-6.6-8 1-3.8 5.5-6.2 10-5.4 4.7.7 7.6 4.3 6.6 8-1 3.6-5.3 6-9.8 5.3" opacity=".34" fill="none" transform="translate(32.304 654.969)"/><path d="M10 37c-2.8-.4-4.7-2.5-4-4.5.5-2 3.4-3.4 6.3-3 3 .5 4.8 2.6 4.2 4.6-.6 2-3.4 3.4-6.3 3" fill="none" transform="translate(32.304 654.969)"/></g><path d="M23.2 22.2s-2.2-1.4-5.2-2c1-1.5 1.8-3.4 2-4.7.5-1.7.4-5.2-1.3-7.3-1-1.3-2.4-2-4-2s-3 .7-4 2c-1.7 2-2 5.6-1.4 7.3.3 1.3 1 3.2 2 4.6-3 .8-5 2-5 2.2-.5.3-.7.8-.6 1.2.2.5.6 1 1 1h16c.4 0 .8-.5 1-1 0-.4 0-1-.5-1.2zm-6-2.8l-.3.2c-1.4 1.6-3.2 1.6-4.5 0l-.2-.2c-1.6-2-2.3-4.6-2-7 .3-2.5 1.7-5 4.4-5s4 2.5 4.4 5c.4 2.4-.3 5-2 7zM6.7 23s2-1.2 5-1.8L13 21c.5.2 1 .4 1.7.4.6 0 1-.2 1.6-.5l1.4.2c3 .6 4.8 2 5 2h-16z" fill="#fff" transform="translate(32.304 654.969)"/></g><g><g><path d="M14.7-.2C8-.2 1.7 4.4.2 11 0 12.4-.2 13.7 0 15-.4 22.6 5.6 29.7 11.2 37l3.4 3.8 3-3.7c7-9 17.2-22.2 8.4-31.8-2-2.6-5-4.4-8.4-5.2l-3-.3z" fill="#d35f5f" transform="translate(-15.649 718.969)"/><path d="M14 22.3c-4.7-.8-7.6-4.4-6.6-8 1-3.8 5.5-6.2 10-5.4 4.7.7 7.6 4.3 6.6 8-1 3.6-5.3 6-9.8 5.3" opacity=".34" fill="none" transform="translate(-15.649 718.969)"/><path d="M10 37c-2.8-.4-4.7-2.5-4-4.5.5-2 3.4-3.4 6.3-3 3 .5 4.8 2.6 4.2 4.6-.6 2-3.4 3.4-6.3 3" fill="none" transform="translate(-15.649 718.969)"/></g><g fill="#fff" fill-rule="evenodd"><path d="M23.6 10.3L20.2 7c-.2-.3-.5-.4-.8-.4h-12c-.8 0-1.6.8-1.6 1.7V22c0 .8.8 1.6 1.7 1.6h14.7c1 0 1.7-.8 1.7-1.7V11l-.4-.7zM22.8 22c0 .2-.3.5-.6.5H7.5c-.3 0-.6-.3-.6-.6V8.2c0-.3.2-.6.5-.6h11.3V10c0 1 .8 1.7 1.7 1.7h2.3V22zM21 11h-.5c-.6 0-1-.4-1-1V7.7l3.3 3.4H21z" transform="translate(-15.649 718.969)"/><path d="M14.6 10.5h2.8c.2 0 .3 0 .3-.3 0-.2 0-.3-.3-.3h-2.8c-.2 0-.3 0-.3.2s0 .3.3.3z" transform="translate(-15.649 718.969)"/><path d="M14.6 12.2h2.8c.2 0 .3 0 .3-.3s0-.4-.3-.4h-2.8c-.2 0-.3 0-.3.3 0 0 0 .2.3.2z" transform="translate(-15.649 718.969)"/><path d="M14.3 13.6c0 .2 0 .3.3.3h6.8c.2 0 .3-.2.3-.4s0-.3-.3-.3h-6.8c-.2 0-.3 0-.3.3z" transform="translate(-15.649 718.969)"/><path d="M21.4 16.8h-13c-.2 0-.3 0-.3.3s.2.4.4.4h13c.2 0 .3 0 .3-.3 0 0 0-.2-.3-.2z" transform="translate(-15.649 718.969)"/><path d="M21.4 18.5h-13c-.2 0-.3 0-.3.3 0 .2.2.3.4.3h13c.2 0 .3 0 .3-.2s0-.3-.3-.3z" transform="translate(-15.649 718.969)"/><path d="M21.4 20h-13c-.2 0-.3.2-.3.4s.2.3.4.3h13c.2 0 .3 0 .3-.3 0-.2 0-.3-.3-.3z" transform="translate(-15.649 718.969)"/><path d="M21.4 15h-13c-.2 0-.3.2-.3.4s.2.3.4.3h13c.2 0 .3 0 .3-.3 0-.2 0-.3-.3-.3z" transform="translate(-15.649 718.969)"/><path d="M8.7 14h4c.3 0 .6-.4.6-.7V10c0-.4-.3-.7-.6-.7h-4c-.3 0-.6.3-.6.6v3.3c0 .3.4.6.7.6zm.6-3.5H12v2.3H9.4v-2.3z" transform="translate(-15.649 718.969)"/></g></g><g font-size="12" letter-spacing="0" word-spacing="0" font-family="Sans"><text x="68" y="622.362" style="line-height:125%" fill="#fff" stroke="#fff" stroke-width=".667"><tspan x="68" y="622.362" font-size="12" font-style="italic" fill="#fff" stroke="#fff" stroke-width=".667">Digurah</tspan></text><text x="68" y="622.362" style="line-height:125%"><tspan x="68" y="622.362" font-size="12" font-style="italic">Digurah</tspan></text></g><rect width="359" height="56" rx="2" ry="0" x="-59" y="393.362" fill="#157b3e"/><rect width="359" height="54" rx="2" ry="0" x="-59" y="345.362" fill="#5791b7"/><g transform="matrix(.021 0 0 .021 -44.667 361.776)" fill="#fff"><rect width="750" height="210" rx="25" ry="25" x="125" y="395"/><rect width="750" height="210" rx="25" ry="25" x="125" y="115"/><rect width="750" height="210" rx="25" ry="25" x="125" y="675"/></g><g style="line-height:125%" font-size="20" letter-spacing="0" word-spacing="0" fill="#fff" font-family="Bariol" font-weight="bold"><path d="M-.5 378.2c.4 0 .8-.2 1-.5l3-5.6v7.4c0 .6.6 1 1.3 1 .6 0 1-.4 1-1V368c0-.7-.4-1.3-1-1.3-.5 0-1 .3-1 .7L-.6 375l-4.2-7.6c-.2-.4-.6-.7-1-.7-.7 0-1.2.6-1.2 1.2v11.4c0 .6.6 1 1.2 1 .7 0 1.2-.4 1.2-1V372l3 5.7c.3.3.7.5 1 .5" style="-inkscape-font-specification:Bariol Bold"/><path d="M7.7 375.8c0 3.3 1.7 4.8 4.5 4.8 1.8 0 3-.8 3.2-1 .2-.2.4-.5.4-.8 0-.5-.4-1-1-1-.2 0-.4 0-.6.3-.5.4-1 .7-2 .7-1.3 0-2.3-.7-2.3-2h4.8c1.2 0 1.2-1 1.2-1.7 0-1.4-.6-4-4-4-2.7 0-4.3 1.7-4.3 4.8m4.3-3c1.3 0 2 1 2 2h-4c0-1.3 1-2 2-2" style="-inkscape-font-specification:Bariol Bold"/><path d="M22.3 371c-1.4 0-2.2.6-2.6 1.2 0-.6-.5-1-1-1-.7 0-1.2.4-1.2 1v7.3c0 .6.5 1 1 1 .7 0 1.2-.4 1.2-1V375c0-1.2.5-2 2-2 1.3 0 1.8.7 1.8 2v4.5c0 .6.4 1 1 1s1-.4 1-1v-5c0-1.8-.5-3.5-3.2-3.5" style="-inkscape-font-specification:Bariol Bold"/><path d="M28.4 371c-.6 0-1 .6-1 1.2v4.7c0 1.8.6 3.6 3.8 3.6 3.2 0 4-1.8 4-3.7V372c0-.6-.5-1-1-1-.7 0-1.2.4-1.2 1v4.7c0 .8-.3 1.7-1.8 1.7-1.4 0-1.8-1-1.8-1.8V372c0-.6-.4-1-1-1" style="-inkscape-font-specification:Bariol Bold"/></g><g style="line-height:125%" font-size="20" letter-spacing="0" word-spacing="0" fill="#fff" font-family="Bariol" font-weight="bold"><path d="M.6 421.8c.3.2.6.4 1 .4.5 0 1-.5 1-1 0-.3 0-.5-.3-.7-.8-1-2.5-2-4.5-2-3.2 0-4.6 1.8-4.6 3.8 0 4.8 7.3 3.5 7.3 6.4 0 1.2-1 1.8-2.7 1.8-1.4 0-2.4-.7-3.3-1.5-.2-.2-.4-.4-1-.4-.4 0-1 .4-1 1 0 .2 0 .4.2.6.8 1.3 2.7 2.4 5 2.4 3.4 0 5-1.5 5-4 0-5-7.2-3.7-7.2-6.3 0-.8.6-1.6 2.3-1.6 1 0 2.2.5 2.8 1" style="-inkscape-font-specification:Bariol Bold"/><path d="M6.6 419.2c0-.6-.5-1-1-1-.7 0-1.2.4-1.2 1v12.3c0 .6.5 1 1 1 .7 0 1.2-.4 1.2-1V427c0-1.2.5-2 2-2 1.3 0 1.8.7 1.8 2v4.5c0 .6.4 1 1 1s1-.4 1-1v-5c0-1.8-.5-3.5-3.2-3.5-1.4 0-2.2.6-2.6 1.2v-5" style="-inkscape-font-specification:Bariol Bold"/><path d="M22.7 427.8c0-3.3-1.6-4.8-4.3-4.8-2.7 0-4.4 1.5-4.4 4.8s1.7 4.8 4.4 4.8 4.3-1.5 4.3-4.8m-2 0c0 2-1 3-2.3 3-1.5 0-2.2-1-2.2-3s.7-3 2.2-3c1.4 0 2.2 1 2.2 3" style="-inkscape-font-specification:Bariol Bold"/><path d="M30.6 431.8c.2.4.6.7 1 .7.5 0 1-.2 1-.7l2.8-7.2v-.4c0-.6-.3-1-1-1-.4 0-.8.2-1 .6l-1.6 5-1.4-5c0-.3-.5-.7-1-.7-.6 0-1 .5-1 1l-1.4 4.7-1.6-5c-.2-.3-.6-.6-1-.6-.7 0-1 .6-1 1.2v.5l2.7 7c.3.5.6.8 1 .8.6 0 1-.3 1.2-.8l1.2-4.3 1.2 4.4" style="-inkscape-font-specification:Bariol Bold"/><path d="M49.8 424.4c0-.6-.5-1-1-1H44V422c0-1 .8-1.5 2-1.5.4 0 .8 0 1.2.2h.5c.5 0 1-.4 1-1 0-.4-.2-.7-.5-1-.5 0-1.4-.3-2.3-.3-2.7 0-4 1.8-4 3.6v1h-.5c-.5 0-1 .4-1 1 0 .4.5.8 1 .8h.4v6.5c0 .6.4 1 1 1s1-.4 1-1V425h3.6v6.4c0 .6.5 1 1 1 .7 0 1.2-.4 1.2-1v-7" style="-inkscape-font-specification:Bariol Bold"/><path d="M53 418c-.7 0-1.2.6-1.2 1.2V430c0 1.6 1 2.5 2.5 2.5.6 0 1-.4 1-1 0-.5-.4-1-1-1 0 0-.4 0-.4-.3v-11c0-.6-.5-1-1-1" style="-inkscape-font-specification:Bariol Bold"/><path d="M57.2 423.3h-.4c-.5 0-1 .4-1 1 0 .4.5.8 1 .8h.4v4.8c0 1.6 1 2.7 3 2.7.4 0 .8-.4.8-1 0-.4-.4-1-1-1-.3 0-.7 0-.7-.6v-5h1c.4 0 .8-.3.8-.8s-.3-1-.8-1h-1v-1.6c0-.6-.3-1-1-1-.5 0-1 .4-1 1v1.7" style="-inkscape-font-specification:Bariol Bold"/><path d="M62.2 427.8c0 3.3 1.8 4.8 4.5 4.8 2 0 3-.8 3.3-1 0-.2.3-.5.3-.8 0-.5-.4-1-1-1-.2 0-.4 0-.6.3-.5.4-1 .7-2 .7-1.3 0-2.3-.7-2.3-2h5c1.2 0 1.2-1 1.2-1.7 0-1.4-.7-4-4-4-2.8 0-4.4 1.7-4.4 4.8m4.4-3c1.3 0 1.8 1 1.8 2h-4c.2-1.3 1-2 2.2-2" style="-inkscape-font-specification:Bariol Bold"/><path d="M74.2 424.2c0-.6-.5-1-1-1-.7 0-1 .4-1 1v7.2c0 .6.3 1 1 1 .5 0 1-.4 1-1v-4c0-1.5.8-2.3 2.2-2.3.5 0 1-.4 1-1 0-.5-.5-1-1-1-1 0-1.8.5-2.2 1.3" style="-inkscape-font-specification:Bariol Bold"/><path d="M81.6 425c1 0 1.4.2 1.8.5.3.2.4.3.7.3.6 0 1-.4 1-1v-.6c-.7-.7-2-1.2-3.4-1.2-1.8 0-3.3 1-3.3 2.7 0 3.4 5 2.5 5 4.2 0 .4-.7.7-1.6.7-1 0-1.6-.4-2.2-1H79c-.6 0-1 .3-1 1 0 0 0 .3.2.5.5.6 1.8 1.4 3.5 1.4 2 0 3.7-1 3.7-3 0-3.2-5-2.5-5-4 0-.5.5-.7 1.2-.7" style="-inkscape-font-specification:Bariol Bold"/></g><path d="M20 0C13.4 0 8 5.4 8 12c0 2 .5 4 1.4 5.6L1 26c-.6.6-1 1.5-1 2.5 0 2 1.6 3.5 3.5 3.5 1 0 2-.4 2.5-1l8.4-8.4C16 23.6 18 24 20 24c6.6 0 12-5.4 12-12S26.6 0 20 0zM4.8 29.7c-.3.3-.8.5-1.3.5-1 0-1.7-.7-1.7-1.7 0-.5.2-1 .5-1.3l8-8c.8 1 1.6 1.7 2.6 2.4l-8.2 8zM20 22c-5.5 0-10-4.5-10-10S14.5 2 20 2s10 4.5 10 10-4.5 10-10 10zm0-17c-4 0-7 3-7 7 0 .3.2.5.5.5s.5-.2.5-.5c0-3.3 2.7-6 6-6 .3 0 .5-.2.5-.5S20.3 5 20 5z" transform="matrix(.625 0 0 .625 -45 415.359)" fill="#fff"/></g><g><path d="M51.4 13.6l-3.4-6v7.8c0 .7-.6 1.2-1.2 1.2s-1.2-.6-1.2-1.2V3c0-.8.6-1.3 1.2-1.3s1 .3 1 .7l4.7 8.2L57 2.4c.3-.4.7-.7 1.2-.7.7 0 1.2.6 1.2 1.2v12.3c0 .7-.6 1.2-1.2 1.2-.7 0-1.2-.6-1.2-1.2v-8l-3.4 6.2c-.2.4-.6.6-1 .6-.5 0-1-.2-1.2-.5zm12-4.4l-.5.2c-.8 0-1-.4-1-1v-.7c.7-.7 1.8-1.4 3.7-1.4 2.7 0 4.3 1.3 4.3 3.6v5.4c0 .6-.4 1.2-1 1.2-.7 0-1.3-.5-1.3-1.2-.6 1-1.5 1.3-3 1.3-2 0-3.4-1.3-3.4-3.3 0-2 1.6-3 3.5-3h3V10c0-1-.8-1.6-2-1.6-1 0-1.8.4-2.3.8zm4.3 3.6v-.6H65c-1 0-1.4.4-1.4 1.2 0 .8.6 1.3 1.8 1.3 1.2 0 2.2-.7 2.2-2zm6.8-10.6v12c0 .2.3.3.4.3.4 0 1 .4 1 1 0 .7-.5 1.2-1 1.2-2 0-3-1-3-2.8V2c0-.6.6-1.2 1.3-1.2.7 0 1.2.6 1.2 1.2zm9.3 5v-5c0-.6.5-1.2 1.2-1.2.6 0 1.2.5 1.2 1.2v10.2c0 3-2 4.3-4.5 4.3-3 0-4.7-1.7-4.7-5.2 0-3.6 1.7-5.2 4.4-5.2 1 0 2 .4 2.4 1zm0 2.2s-.8-1-2.2-1c-1.5 0-2.3 1-2.3 3.2 0 2 .8 3.2 2.3 3.2 1.3 0 2.2-.8 2.2-2.4v-3zM88 4c0-1 .5-1.5 1.4-1.5 1 0 1.4.4 1.4 1.4 0 .6-.5 1-1.4 1-1 0-1.4-.4-1.4-1.2zm2.6 11.5c0 .6-.5 1.2-1.2 1.2-.6 0-1.2-.5-1.2-1.2v-8c0-.5.5-1 1.2-1 .6 0 1.2.4 1.2 1v8zm5 .5L92 8v-.3c0-.6.4-1.2 1-1.2.7 0 1 .4 1.2.8l2.4 6 2.4-6c0-.3.4-.8 1-.8.7 0 1.3.5 1.3 1.2V8l-3.6 8c-.2.4-.6.7-1 .7-.6 0-1-.3-1.2-.7zm11.2-9.6c3.6 0 4.3 2.8 4.3 4.3 0 .8 0 1.7-1 1.7h-5.5c0 1.5 1 2.3 2.6 2.3 1 0 1.7-.3 2.3-.7.3 0 .4-.3.7-.3.5 0 1 .4 1 1 0 .3-.3.6-.5.8-.4.3-1.5 1.2-3.5 1.2-3 0-5-1.6-5-5.2 0-3.4 1.8-5.2 4.8-5.2zm-2.2 4h4.3c0-1-.8-2-2-2-1.4 0-2.4.7-2.4 2zM115 9.2c0 1.6 5.5 1 5.5 4.5 0 2-1.7 3-4 3-2 0-3.3-.7-3.8-1.4-.2-.2-.3-.4-.3-.7 0-.6.4-1 1-1 .2 0 .4 0 .7.3.8.2 1.5.7 2.6.7 1 0 1.6-.3 1.6-1 0-1.7-5.2-.7-5.2-4.4 0-2 1.6-3 3.6-3 1.5 0 3 .7 3.5 1.4v.6c0 .6-.2 1-1 1 0 0-.3 0-.6-.3-.4-.2-1-.6-2-.6-.8.2-1.3.4-1.3 1zM1 27.7C1 22.5 3.5 20 7.8 20c2.6 0 4.3 1 5.2 2.5.2.3.3.4.3.7 0 .6-.5 1.2-1.2 1.2 0 0-.4 0-.7-.4-1-1-2-1.5-3.4-1.5-3 0-4.3 1.8-4.3 5.4C3.7 31.5 5 33 8 33c1.5 0 2.4-.4 3.4-1.4.3-.4.6-.5 1-.5.6 0 1.2.5 1.2 1.2 0 .3 0 .4-.2.6-1 1.5-3 2.5-5.4 2.5-4.4 0-7-2.3-7-7.7zm18.8 7.6c-3 0-4.7-1.7-4.7-5.2 0-3.4 2-5 5-5s4.6 1.7 4.6 5c0 3.8-1.8 5.4-4.7 5.4zm0-8.4c-1.5 0-2.4 1-2.4 3s.8 3.3 2.4 3.3c1.5 0 2.4-1 2.4-3.2 0-2-.8-3.2-2.4-3.2zM35 28.6V34c0 .7-.4 1.3-1 1.3s-1.3-.4-1.3-1.2v-5c0-1-.5-2-2-2s-2 1-2 2.3v5c0 .5-.6 1-1.3 1-.7 0-1.2-.3-1.2-1v-8c0-.6.5-1.2 1.2-1.2.6 0 1.2.6 1.2 1.3.4-.6 1.3-1.3 2.8-1.3 3 0 3.6 1.8 3.6 3.7zm4.6-1c0 1.6 5.4 1 5.4 4.5 0 2-1.7 3-4 3-2 0-3.3-.7-3.8-1.4-.2-.2-.3-.4-.3-.7 0-.4.2-1 1-1l.5.5c.6.4 1.3 1 2.4 1 1 0 1.5-.4 1.5-1 0-1.8-5.3-.8-5.3-4.5 0-2 1.6-3 3.6-3 1.4 0 2.8.6 3.4 1.3l.2.6c0 .4-.4 1-1 1-.3 0-.5-.3-.8-.5-.4-.3-1-.7-2-.7-.8 0-1.3.3-1.3 1zM51.2 25c3.6 0 4.3 2.7 4.3 4.2 0 .8 0 1.7-1.3 1.7h-5.4c0 1.3 1 2 2.6 2 1 0 1.6-.2 2.2-.6.3 0 .4-.3.7-.3.6 0 1 .5 1 1 0 .4-.2.7-.4 1-.6.2-1.7 1-3.7 1-3 0-5-1.5-5-5s1.8-5.3 4.8-5.3zM49 29h4c0-1-.6-2-2-2-1.2 0-2 .6-2.2 2zm10.4-2.7c.4-.8 1.4-1.4 2.4-1.4.6 0 1 .3 1 1 0 .5-.4 1-1 1-1.5 0-2.4 1-2.4 2.4V34c0 .6-.5 1.2-1.2 1.2-.6 0-1.2-.5-1.2-1.2v-8c0-.5.5-1 1.2-1 .6 0 1.2.4 1.2 1v.2zm7.6 8.2l-3.4-8v-.3c0-.6.4-1.2 1-1.2.7 0 1 .4 1.2.8l2.4 6 2.4-6c0-.3.4-.8 1-.8.7 0 1.3.5 1.3 1.2l-.3.4-3.5 8c-.2.3-.6.6-1 .6-.6 0-1-.3-1.2-.7zm9-6.7l-.6.2c-.6 0-1-.4-1-1 0-.3 0-.5.3-.7.6-.7 1.7-1.4 3.6-1.4 2.7 0 4.3 1 4.3 3.4V34c0 .7-.5 1.3-1.2 1.3-.6 0-1.2-.5-1.2-1.2-.6 1-1.5 1.5-3 1.5-2 0-3.4-1.3-3.4-3.3 0-2 1.6-3 3.5-3h3v-.4c0-1-.8-1.6-2-1.6-1 0-1.8.4-2.3.8zm4.2 3.6v-.6h-2.6c-1 0-1.5.4-1.5 1.2 0 .8.8 1.3 2 1.3 1 0 2-.7 2-2zm4.8-8c0-.6.6-1.2 1.3-1.2.6 0 1.2.5 1.2 1.2v2h1c.5 0 1 .3 1 1s-.4 1-1 1h-1v5c0 .6.4 1 .8 1 .6 0 1 .3 1 1s-.4 1-1 1c-2 0-3-1.3-3-3v-5h-.6c-.5 0-1-.5-1-1 0-.6.4-1 1-1h.5v-2zm6-1c0-1 .4-1.3 1.3-1.3 1 0 1.4.6 1.4 1.6 0 .8-.5 1.3-1.4 1.3-1 0-1.4-.6-1.4-1.4zM93.4 34c0 .7-.5 1.3-1.2 1.3-.6 0-1.2-.5-1.2-1.2v-7.7c0-.6.6-1.2 1.3-1.2.6 0 1.2.6 1.2 1.3v8zm6.6 1.3c-3 0-4.8-1.7-4.8-5.2 0-3.4 2-5 4.7-5s4.5 1.7 4.5 5c0 3.8-1.8 5.4-4.7 5.4zm0-8.4c-1.6 0-2.5 1-2.5 3s.8 3.3 2.4 3.3c1.3 0 2.2-1 2.2-3.2 0-2-.8-3.2-2.4-3.2zm14.8 1.7V34c0 .7-.5 1.3-1.2 1.3s-1.2-.4-1.2-1.2v-5c0-1-.5-2-2-2s-2 1-2 2.3v5c0 .5-.6 1-1.3 1-.6 0-1-.3-1-1v-8c0-.6.5-1.2 1-1.2.8 0 1.4.6 1.4 1.3.4-.6 1.3-1.3 2.8-1.3 3 0 3.7 1.8 3.7 3.7zM29.8 51v4.7c0 .7-.6 1.3-1.3 1.3-.7 0-1.3-.6-1.3-1.3V43.4c0-.7.6-1.3 1.3-1.3h4.2c2.6 0 4.5 1.6 4.5 4.7 0 3-2 4.5-4.5 4.5h-3zm0-6.6v4.4h2.7c1.3 0 2.2-.8 2.2-2.2 0-1.4-.8-2.2-2.2-2.2h-2.7zM42.5 57c-3 0-4.7-1.7-4.7-5.2 0-3.6 2-5.2 4.7-5.2 3 0 4.7 1.7 4.7 5.2 0 3.6-1.8 5.2-4.7 5.2zm0-8.4c-1.5 0-2.4 1-2.4 3.3 0 2 1 3 2.6 3 1.5 0 2.4-1 2.4-3 0-2.4-1-3.5-2.5-3.5zM51 48c.5-.8 1.5-1.4 2.5-1.4.6 0 1 .5 1 1 0 .7-.4 1.2-1 1.2-1.5 0-2.4 1-2.4 2.4v4.5c0 .6-.3 1.2-1 1.2-.6 0-1.2-.7-1.2-1.4v-8c0-.5.5-1 1.2-1 .5 0 1 .4 1 1v.2zm6-3c0-.5.6-1 1.3-1 .6 0 1.2.4 1.2 1v2h1c.5 0 1 .4 1 1 0 .5-.4 1-1 1h-1v5.2c0 .5.4.8.8.8.6 0 1 .4 1 1s-.4 1-1 1c-2 0-3-1.2-3-3v-5h-.6c-.5 0-1-.4-1-1 0-.5.4-1 1-1h.5v-2zm8 4.5l-.6.2c-.6 0-1-.4-1-1 0-.3 0-.5.3-.7.6-.7 1.7-1.4 3.6-1.4 2.7 0 4.3 1.3 4.3 3.6v5.6c0 .6-.5 1.2-1.2 1.2-.6 0-1.2-.5-1.2-1.2-.6 1-1.5 1.3-3 1.3-2 0-3.4-1-3.4-3s1.6-3 3.5-3h3v-.6c0-1-.8-1.6-2-1.6-1 0-1.8.4-2.3.8zm4.2 3.6v-.4h-2.6c-1 0-1.5.4-1.5 1.2 0 .8.8 1.3 2 1.3 1 0 2-.6 2-2zM76 42.6v12c0 .2.3.3.4.3.6 0 1 .4 1 1 0 .7-.3 1.2-1 1.2-1.7 0-2.7-1-2.7-2.8V42.5c0-.6.5-1.2 1.2-1.2.5 0 1 .6 1 1.2z" transform="matrix(1.5 0 0 1.5 135.495 37.509)" fill="#0a7aa5"/><path d="M101.5 71.2c1 0 2-.2 3-.6 1.7-.6 3-1.6 4-3l.4-.3h-.6c-1.6-.7-3-1.8-4-3L95.8 69c1.6 1.4 3.6 2.2 5.8 2.2zm30.5-6.7l6.5-4.4c-.6-1-.8-2.6-.6-4 0-1 .5-2 1.2-3h.2l-.2-.4c-1-1-2.3-1.8-3.8-2H134c-3.4 0-6.4 2.3-7 5.7-.8 3.7 1.4 7.3 5 8.4zm23.6 6.2c.4 0 .8 0 1.2.3l4.5-3c-1.3-1.4-3.3-2.4-5.5-2.4h-1c-1 .2-1.7.5-2.4 1l3 4.2h.3zm-16-8.5l.3-.2-.4-.2-4.4 3c1.7-.4 3.3-1.3 4.4-2.6zm-30.4 17c.4 0 .8 0 1.2.3l5-3.3.5-.6v-.2l-.2-.3c-1.3-1-2.8-2-4.6-2.4-.6 0-1.3-.3-2-.3-4 0-7.2 2.4-8.5 6l6.8 1.6c.4-.5 1-.8 1.5-.8zm53-9.6l-4.4 3c0 1.2-.8 2-2 2.2-1 0-2-.8-2-2v-1l-3-4.3c-.8.8-1.4 1.7-1.8 2.7v.3h.2c2 1 3.3 3 3.6 5 0 1.2 0 2.3-.3 3.4h.2c1 .7 2 1 3.2 1h1c4-.7 6.5-4.4 6-8.3 0-.7-.4-1.4-.7-2zm-85.5 7.6l-7.3 1.3c-.3.8-.3 1.7-.3 2.5.5 3.8 3.7 6.7 7.4 6.7h.5c3-.3 5.7-2.5 6.4-5.6V82H83c-3 0-5.4-2-6.2-4.5zM113 80l-1.5 1c0 1.3-.8 2.2-2 2.3-1 0-1.8-.6-2-1.5l-7-1.6c-.3 2 .2 4 1.3 6 1.3 2 3.3 3.4 5.6 4l2 .2c2 0 4-.7 5.7-2l.5-.2-.3-.3c-2-2.4-2.6-5-2-8zM94.4 67.6l9.3-5.2V62c-1-2.6-.6-5.5 1-7.8l.4-.3-.2-.3c-2-.8-4.2-.8-6.2 0-2.2.8-4 2.5-5 4.7s-1 4.6-.3 7c.2.7.6 1.5 1.2 2.2zm-18 7.7v-2.1H76c-2.3.2-4.2 1.4-5.4 3l6-1z" transform="matrix(1.5 0 0 1.5 135.495 37.509)" fill="#30bf17"/><path d="M143 64.3h1.2l-.5-5.2h-.2l-4.4 3 .4.4c1 1 2.3 1.7 3.8 2zm-20.3 16.4l7-1.5c-1-3-3.3-5.2-6.5-6h-.3l-3.7 2.4 2 4.3c.5 0 1 .2 1.4.6zm23-20l.3 3.6c.6 0 1.3-.4 2-.7l-2.3-3zm-55.5 15v-1c0-1-.2-1.6-.5-2l-4 2 4.5 1zM139 77l5.2-1c0-.6.4-1 1-1.3l-.6-5.4c-3.5 1-6 4.2-5.6 7.7zm1.7-18.4l1.7-1.2c0-1.3.8-2.2 2-2.3 1 0 1.8.8 2 1.8l5.3 1.3c.4-3.5-2-7-5.8-8h-1.7c-2 0-4.2 1-5.5 2.7l-.3.2h.2c1.2 1.6 2 3.7 1.6 5.8zm-25.5 16.7l.3.3.3.3 1.3-1V74l-1.4.8-.3.3zM163 62.7V64l.7 2.4 4-2.6-4.6-1.2zm-55.2 5h.4c1 .4 2 .6 3 .6s2 0 2.7-.4l-3-6.7c-.4 0-.7 0-1-.3l-.4.4c.3 2-.3 4.2-1.7 6l-.4.2zm-28 7l1.2-.3c.3-.8 1-1.4 2-1.5.3-.3.8 0 1.2 0l4.7-2.5c-1.6-2-4-3-6.5-3-3.2.4-5.8 2.6-6.5 5.7v.4h.6c1.2 0 2.2.4 3.2 1zm4.7 1.7c-.3.4-.8.7-1.4.7h-1c.6 1 1 2 1 3v2.4h.6c3-.2 5.3-2 6.3-4.7l-5.4-1.2zm64.7-2.7c0-1 0-2.2.3-3.3V70h-.2c-1-.4-2-.7-3-.7l.6 5.4c.5.3 1 1 1 1.8 0 1.2-.7 2-2 2.2-.5 0-1-.3-1.5-.8l-5.2 1c1 3 3.7 5 6.8 5 .4 0 .8 0 1-.3 2.7-.4 5-2.2 6-4.7h-.3c-2-1.2-3.4-3-3.7-5.2zm.2-11.2c.8-.7 1.3-1.6 1.7-2.6l-4.3-1.3 2.7 3.7zm27.6.5c0-2-1-3.5-2.2-4.7-1.3-1.2-3-2-4.7-2h-.3c-2 .2-3.5 1-4.7 2.5-.6.6-1 1.3-1.3 2l5 1.2c.2-.4.7-.6 1.3-.7 1.2 0 2 .8 2.2 2 0 1-.8 2-2 2-.3 0-.7 0-1-.2l-4.3 3s0 .3.3.4c1.3 1.2 3 2 4.7 2h.6c2-.2 3.5-1 4.7-2.5 1.2-1.5 1.8-3 1.7-5zm-54 19.5c-.2.8-1 1.5-1.8 1.5-1.2 0-2-.8-2.2-2 0-.5 0-1 .4-1.4l-1.7-4-1 .7c1 1.7 1.2 3.8.8 5.8-.4 2-1.4 3.6-3 4.8l-.2.2.3.2c1.2 1.3 2.7 2.2 4.5 2.6.8 0 1.5.3 2 .3 4.4 0 8-2.7 9-7 .3-1 .3-2 0-3l-7 1.7zm-13.7-23.2c0-1 .8-2 2-2 1 0 2 .8 2 2 .2.5 0 1-.3 1.4l2.8 6.5c3.8-2 5.6-6.7 4-11-1.3-3.4-4.7-5.8-8.4-5.8-1 0-2 .2-3 .6-1.7.6-3 1.6-4 3l-.4.3h.4c2.2 1 4 2.7 5 5zM61.5 80c-.3.7-1 1.3-2 1.4-.7 0-1.4-.3-1.8-1l-5 .4c.3 1.4 1 2.7 2 3.6 1.3 1.2 3 2 4.7 2h.5c1.7-.2 3.3-1 4.5-2.5 1.2-1.5 1.7-3.3 1.7-5l-5 1zm-4-1.6c.4-.7 1-1.2 1.8-1.3.7 0 1.4.5 1.8 1l5-1c-.2-1-1-2-1.7-3-1.3-1-3-1.7-4.7-1.7H59c-2 0-3.5 1-4.7 2.4-1 1.2-1.6 2.6-1.7 4l5-.2zM47 81c-.4.8-1 1.3-1.8 1.4-1.2 0-2-.8-2.2-2 0-1 .8-2 2-2 .7-.2 1.4.2 1.8 1l3-.3c-.4-.6-.8-1.4-1.4-2-1-1-2-1.3-3.3-1.3H45c-2.6.2-4.6 2.5-4.4 5 0 1.3.6 2.5 1.5 3.3 1 .7 2 1.2 3.2 1.2h.5c1.3 0 2.4-.7 3.3-1.7.6-.7 1-1.6 1.2-2.5l-3 .2z" transform="matrix(1.5 0 0 1.5 135.495 37.509)" fill="#0a7aa5"/><path d="M141.4 58c.2-2-.6-4-2-5.5l-.3-.3v.3c-1 1-1.4 2-1.7 3.2-.3 1.7 0 3.3.6 4.7l3.4-2.3zM103 62.8l6.3-3.5c0-.4 0-.8.3-1-1-2.2-2.8-3.8-5-4.6h-.2c-2 2.6-2.5 5.8-1.4 8.7v.4zm5.3 5h.2c1.6-2 2-4.3 2-6.6h-.3l-6.2 3.4c1 1.5 2.6 2.6 4.3 3.3zM116 75h-.6c-.8.7-1.5 1.6-2 2.4l2.7-2V75zm23.7-12.8c.3-.3.6-.7.8-1.2l-1.4 1c.3 0 .3 0 .3.2l.3.3.3-.3zm-59 12.3c-1.3-.8-2.7-1.3-4.3-1.3H76v.3c-.2.6-.3 1.3-.3 2l5-1zm31.6 6c-.5 2.7.4 5.6 2.4 7.7l.2.2v-.2c1.7-1.3 2.7-3 3-5 .7-2.2.4-4.4-.6-6.3l-5 3.3zm37-10.5h-.2v.2c-.3 1.2-.5 2.4-.3 3.6.3 2.4 2 4.4 4 5.5h.3V79c.4-1 .6-2.2.4-3.4-.3-2.4-2-4.5-4-5.5zM83 77c-.7 0-1.3-.2-1.6-.7l-5.2 1c1 3 3.7 5 7 5h.3V82c.3-.7.3-1.5.3-2.2 0-1-.4-2-.8-2.8z" transform="matrix(1.5 0 0 1.5 135.495 37.509)" fill="#0a7a17"/></g></g></svg>